<svg width="0" height="0" class="hidden">
  <symbol xmlns="http://www.w3.org/2000/svg" viewBox="0 0 720 1024" id="campfirenew">
    <title></title>
    <path d="M660.958 554.084c-8.577-19.376-20.411-38.457-37.718-60.494-43.635-55.318-56.944-178.675-57.094-179.859-.591-5.917-4.732-10.797-10.206-12.573-5.621-1.776-11.683-.149-15.679 4.291-52.064 58.719-30.173 149.389-18.339 185.628 3.255 9.912 6.803 21.595 9.315 33.427 19.229 95.697-17.898 139.036-26.626 147.763-8.432 2.367-14.198 1.185-19.524-4.586-18.339-20.264-24.406-86.675-15.827-173.204 1.777-17.6 1.33-33.427-1.185-48.22-18.091-106.353-84.43-174.57-101.318-198.496-46.445-69.221-51.177-184.443-51.326-185.478-.149-5.471-3.255-10.353-8.136-12.719-4.732-2.367-10.502-2.071-14.939 1.035-77.504 53.101-70.85 181.042-60.053 252.482 2.515 16.565 7.397 33.427 15.827 54.727 30.027 76.173-5.917 174.534-6.212 175.421s-.591 1.626-.739 2.515c-4.586 24.256-12.277 38.753-20.855 38.753-.886 0-1.776-.149-2.811-.444-10.502-2.22-15.974-13.459-16.123-23.221-.591-126.168-126.168-168.618-127.499-169.062-5.621-1.776-11.833-.149-15.679 4.436-3.995 4.586-4.732 10.947-2.071 16.27 1.48 3.106 6.212 16.714 2.959 64.785-2.811 43.189-10.648 85.935-23.221 126.909-29.877 98.212-25.145 191.248-24.85 195.686 22.974 251.9 382.257 296.041 595.485 154.121 23.37-15.529 42.45-33.279 56.503-52.803 78.69-109.454 32.394-258.104-2.069-337.086zM114.421 794.751c.444 8.136-5.767 15.088-13.903 15.529h-.886c-7.839 0-14.348-6.065-14.792-13.903-1.33-21.595-1.035-44.226.591-68.778.591-8.136 7.691-14.198 15.827-13.756 8.136.591 14.348 7.691 13.756 15.827-1.627 23.372-1.922 44.671-.591 65.081zm7.245-131.065c-.886 7.542-7.247 13.017-14.644 13.017-.591 0-1.185 0-1.922-.149-7.986-1.035-13.756-8.282-12.868-16.418l7.101-57.094c1.035-7.986 8.282-13.756 16.565-12.868 8.136 1.035 13.903 8.432 12.868 16.565l-7.101 56.944zm439.215-413.417c-8.067-1.251-13.599-8.789-12.355-16.857.925-6.009 6.268-36.775 20.771-52.247 5.582-5.965 14.928-6.276 20.908-.672 5.957 5.582 6.261 14.943.672 20.908-6.138 6.553-11.369 25.297-13.115 36.515a14.805 14.805 0 0 1-16.879 12.349zm-539.22 73.656c-2.832-11.001-9.864-29.14-16.619-35.063-6.145-5.39-6.76-14.732-1.373-20.873 5.374-6.153 14.712-6.783 20.873-1.373 15.94 13.975 24.265 44.071 25.774 49.955 2.023 7.908-2.744 15.952-10.645 17.99a14.813 14.813 0 0 1-18.013-10.639z"></path>
  </symbol>
</svg>